<svg width="24" height="40" viewBox="0 0 24 40" fill="none" xmlns="http://www.w3.org/2000/svg">
<g clip-path="url(#clip0_151_1655)">
<path d="M17.2734 9.2527H14.7473V6.72656C14.7473 6.31238 14.4115 5.97656 13.9973 5.97656H10.0027C9.58852 5.97656 9.25271 6.31238 9.25271 6.72656V9.2527H6.72656C6.31238 9.2527 5.97656 9.58852 5.97656 10.0027V13.9972C5.97656 14.4115 6.31238 14.7472 6.72656 14.7472H9.25271V17.2734C9.25271 17.6877 9.58852 18.0234 10.0027 18.0234H13.9973C14.4115 18.0234 14.7473 17.6877 14.7473 17.2734V14.7472H17.2734C17.6876 14.7472 18.0234 14.4115 18.0234 13.9972V10.0027C18.0234 9.58852 17.6876 9.2527 17.2734 9.2527ZM16.5234 13.2472H13.9973C13.5831 13.2472 13.2473 13.583 13.2473 13.9972V16.5234H10.7527V13.9972C10.7527 13.583 10.4169 13.2472 10.0027 13.2472H7.47656V10.7527H10.0027C10.4169 10.7527 10.7527 10.4169 10.7527 10.0027V7.47656H13.2473V10.0027C13.2473 10.4169 13.5831 10.7527 13.9973 10.7527H16.5234V13.2472ZM20.4853 3.51473C18.2188 1.24823 15.2053 0 12 0C8.79469 0 5.78124 1.24823 3.51474 3.51473C1.24824 5.78123 2.18647e-06 8.79469 2.18647e-06 12C2.18647e-06 14.2867 0.640737 16.4955 1.85663 18.4138L0.0525959 22.9741C-0.0461228 23.2237 -0.00398218 23.5069 0.16308 23.717C0.306612 23.8973 0.523455 24 0.749908 24C0.787127 24 0.824674 23.9972 0.862127 23.9916L7.25485 23.025C8.75499 23.6721 10.3501 24 12 24C15.2053 24 18.2188 22.7518 20.4853 20.4853C22.7518 18.2188 24 15.2053 24 12C24 8.79469 22.7518 5.78123 20.4853 3.51473ZM12 22.5C10.4895 22.5 9.0322 22.1864 7.66838 21.5677C7.57069 21.5234 7.46499 21.5007 7.35858 21.5007C7.32122 21.5007 7.28372 21.5035 7.24646 21.5092L1.92703 22.3135L3.39474 18.6034C3.48624 18.3722 3.45713 18.1106 3.31711 17.9052C2.12836 16.1609 1.5 14.1188 1.5 12C1.5 6.21028 6.21028 1.5 12 1.5C17.7897 1.5 22.5 6.21028 22.5 12C22.5 17.7897 17.7897 22.5 12 22.5Z" fill="#9FA7BF"/>
</g>
<path d="M8 32L12 36L16 32" stroke="#9FA7BF" stroke-width="1.5" stroke-linecap="round" stroke-linejoin="round"/>
<defs>
<clipPath id="clip0_151_1655">
<rect width="24" height="24" fill="white"/>
</clipPath>
</defs>
</svg>
