<svg width="24" height="24" viewBox="0 0 24 24" fill="none" xmlns="http://www.w3.org/2000/svg">
<g clip-path="url(#clip0_151_1668)">
<path d="M23.3808 7.55283C22.5584 6.73036 21.2202 6.73041 20.3975 7.55302C20.1444 7.80628 18.5289 9.42314 18.2821 9.67017V4.09809C18.2821 3.53466 18.0627 3.00497 17.6642 2.60658L15.6756 0.617813C15.2772 0.219375 14.7474 0 14.184 0H2.11023C0.94712 0 0.000854492 0.946266 0.000854492 2.10938V21.8906C0.000854492 23.0537 0.94712 24 2.11023 24H16.1727C17.3358 24 18.2821 23.0537 18.2821 21.8906V15.639L23.3808 10.536C24.2052 9.71161 24.2054 8.37727 23.3808 7.55283ZM14.0634 1.40625C14.1962 1.40625 14.4522 1.38323 14.6812 1.61217L16.6699 3.60094C16.8931 3.82411 16.8759 4.06866 16.8759 4.21875H14.0634V1.40625ZM16.8759 21.8906C16.8759 22.2783 16.5605 22.5938 16.1727 22.5938H2.11023C1.72253 22.5938 1.4071 22.2783 1.4071 21.8906V2.10938C1.4071 1.72167 1.72253 1.40625 2.11023 1.40625H12.6571V4.92188C12.6571 5.31019 12.9719 5.625 13.3602 5.625H16.8759V11.0776C16.8759 11.0776 14.8014 13.1538 14.8014 13.1539L13.8075 14.1478C13.7303 14.225 13.6721 14.3191 13.6376 14.4226L12.6432 17.4058C12.5589 17.6584 12.6247 17.937 12.8131 18.1253C13.0016 18.3139 13.2803 18.3793 13.5326 18.2952L16.5157 17.3008C16.6193 17.2663 16.7134 17.2081 16.7905 17.1309L16.8759 17.0456V21.8906ZM15.299 14.645L16.2933 15.6394L15.9135 16.0192L14.422 16.5164L14.9192 15.0248L15.299 14.645ZM17.2875 14.6448L16.2932 13.6504C16.8227 13.1205 19.1743 10.7668 19.6731 10.2676L20.6674 11.262L17.2875 14.6448ZM22.3862 9.54178L21.6614 10.2672L20.6671 9.27286L21.3921 8.54719C21.6664 8.27302 22.1124 8.27306 22.3865 8.54719C22.6606 8.82141 22.6621 9.26592 22.3862 9.54178Z" fill="url(#paint0_linear_151_1668)"/>
<path d="M13.3602 7.03125H3.51648C3.12817 7.03125 2.81335 7.34606 2.81335 7.73438C2.81335 8.12269 3.12817 8.4375 3.51648 8.4375H13.3602C13.7485 8.4375 14.0634 8.12269 14.0634 7.73438C14.0634 7.34606 13.7485 7.03125 13.3602 7.03125Z" fill="url(#paint1_linear_151_1668)"/>
<path d="M10.5477 9.84375H3.51648C3.12817 9.84375 2.81335 10.1586 2.81335 10.5469C2.81335 10.9352 3.12817 11.25 3.51648 11.25H10.5477C10.936 11.25 11.2509 10.9352 11.2509 10.5469C11.2509 10.1586 10.936 9.84375 10.5477 9.84375Z" fill="url(#paint2_linear_151_1668)"/>
<path d="M10.5477 12.6562H3.51648C3.12817 12.6562 2.81335 12.9711 2.81335 13.3594C2.81335 13.7477 3.12817 14.0625 3.51648 14.0625H10.5477C10.936 14.0625 11.2509 13.7477 11.2509 13.3594C11.2509 12.9711 10.936 12.6562 10.5477 12.6562Z" fill="url(#paint3_linear_151_1668)"/>
<path d="M10.5477 15.4688H3.51648C3.12817 15.4688 2.81335 15.7836 2.81335 16.1719C2.81335 16.5602 3.12817 16.875 3.51648 16.875H10.5477C10.936 16.875 11.2509 16.5602 11.2509 16.1719C11.2509 15.7836 10.936 15.4688 10.5477 15.4688Z" fill="url(#paint4_linear_151_1668)"/>
<path d="M13.3602 19.7812H9.14148C8.75317 19.7812 8.43835 20.0961 8.43835 20.4844C8.43835 20.8727 8.75317 21.1875 9.14148 21.1875H13.3602C13.7485 21.1875 14.0634 20.8727 14.0634 20.4844C14.0634 20.0961 13.7485 19.7812 13.3602 19.7812Z" fill="url(#paint5_linear_151_1668)"/>
</g>
<defs>
<linearGradient id="paint0_linear_151_1668" x1="-1.65736" y1="6.25781" x2="29.1197" y2="17.0557" gradientUnits="userSpaceOnUse">
<stop stop-color="#9FA7BF"/>
<stop offset="1" stop-color="#9FA7BF"/>
</linearGradient>
<linearGradient id="paint1_linear_151_1668" x1="2.03601" y1="7.39792" x2="3.86099" y2="12.5205" gradientUnits="userSpaceOnUse">
<stop stop-color="#9FA7BF"/>
<stop offset="1" stop-color="#9FA7BF"/>
</linearGradient>
<linearGradient id="paint2_linear_151_1668" x1="2.23035" y1="10.2104" x2="4.46766" y2="14.9204" gradientUnits="userSpaceOnUse">
<stop stop-color="#9FA7BF"/>
<stop offset="1" stop-color="#9FA7BF"/>
</linearGradient>
<linearGradient id="paint3_linear_151_1668" x1="2.23035" y1="13.0229" x2="4.46766" y2="17.7329" gradientUnits="userSpaceOnUse">
<stop stop-color="#9FA7BF"/>
<stop offset="1" stop-color="#9FA7BF"/>
</linearGradient>
<linearGradient id="paint4_linear_151_1668" x1="2.23035" y1="15.8354" x2="4.46766" y2="20.5454" gradientUnits="userSpaceOnUse">
<stop stop-color="#9FA7BF"/>
<stop offset="1" stop-color="#9FA7BF"/>
</linearGradient>
<linearGradient id="paint5_linear_151_1668" x1="8.04968" y1="20.1479" x2="10.7778" y2="23.9768" gradientUnits="userSpaceOnUse">
<stop stop-color="#9FA7BF"/>
<stop offset="1" stop-color="#9FA7BF"/>
</linearGradient>
<clipPath id="clip0_151_1668">
<rect width="24" height="24" fill="white"/>
</clipPath>
</defs>
</svg>
