<svg width="24" height="24" viewBox="0 0 24 24" fill="none" xmlns="http://www.w3.org/2000/svg">
<g clip-path="url(#clip0_310_2305)">
<path d="M23.0938 9.91355L13.3044 9.91309C12.8721 9.91309 12.5218 10.2634 12.5218 10.6957V13.823C12.5218 14.2552 12.8721 14.6056 13.3044 14.6056H18.8172C18.2135 16.1722 17.0868 17.4842 15.6494 18.3178L18 22.387C21.7707 20.2062 24 16.3799 24 12.0965C24 11.4866 23.955 11.0506 23.8651 10.5597C23.7968 10.1867 23.473 9.91355 23.0938 9.91355Z" fill="#167EE6"/>
<path d="M12 19.3047C9.30215 19.3047 6.94696 17.8306 5.68204 15.6494L1.61301 17.9948C3.68371 21.5836 7.5628 24.0003 12 24.0003C14.1767 24.0003 16.2306 23.4143 18 22.3929V22.3873L15.6493 18.3181C14.5741 18.9417 13.3299 19.3047 12 19.3047Z" fill="#12B347"/>
<path d="M18 22.3922V22.3866L15.6494 18.3174C14.5741 18.941 13.33 19.304 12 19.304V23.9996C14.1767 23.9996 16.2308 23.4135 18 22.3922Z" fill="#0F993E"/>
<path d="M4.69566 12.0003C4.69566 10.6705 5.05856 9.42637 5.68205 8.3512L1.61302 6.00586C0.586031 7.76962 0 9.81797 0 12.0003C0 14.1826 0.586031 16.2309 1.61302 17.9947L5.68205 15.6494C5.05856 14.5742 4.69566 13.3301 4.69566 12.0003Z" fill="#FFD500"/>
<path d="M12 4.69566C13.7593 4.69566 15.3752 5.32078 16.6374 6.36061C16.9488 6.61711 17.4014 6.59859 17.6866 6.31336L19.9024 4.09758C20.226 3.77395 20.203 3.24422 19.8573 2.94431C17.7425 1.10967 14.9909 0 12 0C7.5628 0 3.68371 2.41673 1.61301 6.00558L5.68204 8.35092C6.94696 6.16969 9.30215 4.69566 12 4.69566Z" fill="#FF4B26"/>
<path d="M16.6374 6.36061C16.9488 6.61711 17.4015 6.59859 17.6866 6.31336L19.9024 4.09758C20.226 3.77395 20.2029 3.24422 19.8573 2.94431C17.7425 1.10963 14.991 0 12 0V4.69566C13.7592 4.69566 15.3752 5.32078 16.6374 6.36061Z" fill="#D93F21"/>
</g>
<defs>
<clipPath id="clip0_310_2305">
<rect width="24" height="24" fill="white"/>
</clipPath>
</defs>
</svg>
