<svg width="24" height="24" viewBox="0 0 24 24" fill="none" xmlns="http://www.w3.org/2000/svg">
<path d="M17.445 2.76562H17.0944V5.3925C17.0944 5.51682 17.1437 5.63605 17.2317 5.72396C17.3196 5.81186 17.4388 5.86125 17.5631 5.86125H20.07V5.47687L19.5337 4.92375H18.0319V3.37125L17.445 2.76562Z" fill="#44c2ad"/>
<path d="M17.1765 17.3437V11.1543C17.1765 11.03 17.1271 10.9107 17.0392 10.8228C16.9513 10.7349 16.8321 10.6855 16.7077 10.6855H2.99304C2.86872 10.6855 2.74949 10.7349 2.66159 10.8228C2.57368 10.9107 2.52429 11.03 2.52429 11.1543V17.3437C2.52429 17.468 2.57368 17.5872 2.66159 17.6751C2.74949 17.763 2.86872 17.8124 2.99304 17.8124H16.7077C16.8321 17.8124 16.9513 17.763 17.0392 17.6751C17.1271 17.5872 17.1765 17.468 17.1765 17.3437ZM16.239 16.8749H3.46179V11.623H16.239V16.8749Z" fill="#44c2ad"/>
<path d="M21.3444 4.77188L18.1794 1.50188C18.1357 1.45657 18.0833 1.42059 18.0253 1.3961C17.9673 1.37161 17.9049 1.35912 17.8419 1.35938H5.69757C5.57325 1.35938 5.45402 1.40877 5.36611 1.49667C5.27821 1.58458 5.22882 1.70381 5.22882 1.82813V10.2169H6.16632V2.29688H17.6438L20.5388 5.2875V21.7031H6.16632V18.2813H5.22882V22.1719C5.22882 22.2962 5.27821 22.4154 5.36611 22.5033C5.45402 22.5912 5.57325 22.6406 5.69757 22.6406H21.0069C21.1313 22.6406 21.2505 22.5912 21.3384 22.5033C21.4263 22.4154 21.4757 22.2962 21.4757 22.1719V5.09813C21.4757 4.97651 21.4287 4.85958 21.3444 4.77188Z" fill="#53a0cd"/>
<path d="M4.67232 15.9291C4.83615 15.9889 5.00921 16.0196 5.18363 16.0196C5.61994 16.0196 6.35194 15.8509 6.35194 14.7208V12.7598C6.35194 12.6852 6.32231 12.6136 6.26957 12.5609C6.21682 12.5081 6.14528 12.4785 6.07069 12.4785H5.69232C5.61773 12.4785 5.54619 12.5081 5.49344 12.5609C5.4407 12.6136 5.41107 12.6852 5.41107 12.7598V14.691C5.41107 15.1361 5.30288 15.1361 5.15288 15.1361C5.07947 15.1365 5.00659 15.1238 4.93763 15.0986C4.899 15.0836 4.85753 15.0773 4.81618 15.0801C4.77483 15.083 4.73461 15.0949 4.69842 15.1152C4.66223 15.1354 4.63095 15.1633 4.60683 15.197C4.58271 15.2307 4.56633 15.2694 4.55888 15.3101L4.50263 15.6188C4.49113 15.6821 4.50171 15.7475 4.53259 15.8039C4.56348 15.8604 4.61279 15.9046 4.67232 15.9291Z" fill="#53a0cd"/>
<path d="M12.7215 15.9955H13.0777C13.1523 15.9955 13.2239 15.9659 13.2766 15.9132C13.3293 15.8604 13.359 15.7889 13.359 15.7143V14.4618C13.359 14.4267 13.359 14.3922 13.359 14.3583C13.3627 14.3641 13.3665 14.3701 13.3702 14.3761L14.3008 15.8635C14.3262 15.9038 14.3613 15.9369 14.403 15.9599C14.4447 15.9828 14.4915 15.9948 14.5391 15.9948H14.9218C14.9964 15.9948 15.0679 15.9651 15.1207 15.9124C15.1734 15.8597 15.203 15.7881 15.203 15.7135V12.7833C15.203 12.7087 15.1734 12.6371 15.1207 12.5844C15.0679 12.5317 14.9964 12.502 14.9218 12.502H14.5655C14.4909 12.502 14.4194 12.5317 14.3667 12.5844C14.3139 12.6371 14.2843 12.7087 14.2843 12.7833V14.0723L13.3725 12.6327C13.3472 12.5925 13.3121 12.5594 13.2705 12.5365C13.2289 12.5135 13.1822 12.5015 13.1347 12.5015H12.7222C12.6476 12.5015 12.5761 12.5311 12.5234 12.5838C12.4706 12.6366 12.441 12.7081 12.441 12.7827V15.7143C12.441 15.7887 12.4705 15.8602 12.5231 15.9129C12.5757 15.9656 12.647 15.9953 12.7215 15.9955Z" fill="#44c2ad"/>
<path d="M10.6312 16.0437C11.4487 16.0437 12.2737 15.4793 12.2737 14.2188C12.2737 13.18 11.6162 12.4546 10.6749 12.4546C9.70797 12.4546 9.03241 13.2033 9.03241 14.2754C9.03316 15.3164 9.69072 16.0437 10.6312 16.0437ZM10.6575 13.325C11.1746 13.325 11.3111 13.9205 11.3111 14.2353C11.3111 14.7014 11.1077 15.1717 10.653 15.1717C10.203 15.1717 9.99935 14.7029 9.99935 14.2657C9.99935 13.8284 10.1726 13.3257 10.6582 13.3257L10.6575 13.325Z" fill="#44c2ad"/>
<path d="M6.68944 15.8063C6.96449 15.964 7.27673 16.0452 7.59375 16.0414C8.49713 16.0414 8.90156 15.4765 8.90156 14.9164C8.90156 14.2384 8.40544 13.9602 7.97363 13.7929C7.57088 13.6371 7.57088 13.5625 7.57088 13.4901C7.57088 13.3913 7.67213 13.332 7.84182 13.332C7.98894 13.3316 8.13388 13.3676 8.26369 13.4369C8.29972 13.4565 8.33962 13.4681 8.38059 13.4707C8.42156 13.4733 8.46261 13.4669 8.50085 13.452C8.53909 13.4371 8.57359 13.4139 8.60194 13.3842C8.63029 13.3545 8.65179 13.319 8.66494 13.2801L8.76938 12.9715C8.79031 12.9096 8.78901 12.8423 8.76571 12.7812C8.74241 12.7201 8.69855 12.6691 8.64169 12.6368C8.39853 12.5114 8.12767 12.4495 7.85419 12.4566C7.14169 12.4566 6.62475 12.9096 6.62475 13.5336C6.62475 14.0344 6.94819 14.4032 7.57932 14.6269C7.95113 14.77 7.95113 14.8598 7.95113 14.947C7.95113 15.1279 7.77056 15.1658 7.61906 15.1658C7.4319 15.1638 7.24863 15.112 7.08807 15.0158C7.05137 14.9932 7.00998 14.9793 6.96708 14.9753C6.92418 14.9712 6.88092 14.9771 6.84064 14.9924C6.80036 15.0077 6.76414 15.032 6.73477 15.0636C6.7054 15.0951 6.68367 15.133 6.67125 15.1742L6.57563 15.4915C6.55836 15.5492 6.56011 15.611 6.5806 15.6677C6.60109 15.7243 6.63924 15.7729 6.68944 15.8063Z" fill="#53a0cd"/>
</svg>
