<svg width="20" height="24" viewBox="0 0 20 24" fill="none" xmlns="http://www.w3.org/2000/svg">
<path d="M2.98151 17.0807H12.4328C14.5014 17.0807 16.1785 15.4038 16.1785 13.335C16.1785 11.2664 14.5015 9.58936 12.4328 9.58936H10.9204" stroke="#44c2ad" stroke-miterlimit="10" stroke-linecap="round" stroke-linejoin="round"/>
<path d="M13.896 20.1489H0.610718V23.2971H13.896V20.1489Z" stroke="#44c2ad" stroke-miterlimit="10" stroke-linecap="round" stroke-linejoin="round"/>
<path d="M12.6188 20.1493C16.358 20.1493 19.3893 17.1181 19.3893 13.3789C19.3893 9.63965 16.358 6.6084 12.6188 6.6084H10.9203" stroke="#53a0cd" stroke-miterlimit="10" stroke-linecap="round" stroke-linejoin="round"/>
<path d="M7.96167 20.149V17.0806" stroke="#53a0cd" stroke-miterlimit="10" stroke-linecap="round" stroke-linejoin="round"/>
<path d="M4.3186 3.37355V0.702637H7.38334V3.37355" stroke="#44c2ad" stroke-miterlimit="10" stroke-linecap="round" stroke-linejoin="round"/>
<path d="M7.38334 11.7622V14.4357H4.3186V11.7622" stroke="#44c2ad" stroke-miterlimit="10" stroke-linecap="round" stroke-linejoin="round"/>
<path d="M8.11552 3.37354H3.58643V11.7613H8.11552V3.37354Z" stroke="#53a0cd" stroke-miterlimit="10" stroke-linecap="round" stroke-linejoin="round"/>
<path d="M3.58643 6.60059H8.11556" stroke="#53a0cd" stroke-miterlimit="10" stroke-linecap="round" stroke-linejoin="round"/>
<path d="M8.22699 5.57568H10.9204V10.6239H8.22699" stroke="#53a0cd" stroke-miterlimit="10" stroke-linecap="round" stroke-linejoin="round"/>
</svg>
