<svg width="20" height="21" viewBox="0 0 20 21" fill="none" xmlns="http://www.w3.org/2000/svg">
<path d="M15.8333 18H4.16667C3.72464 18 3.30072 17.8244 2.98816 17.5118C2.67559 17.1993 2.5 16.7754 2.5 16.3333V4.66667C2.5 4.22464 2.67559 3.80072 2.98816 3.48816C3.30072 3.17559 3.72464 3 4.16667 3H13.3333L17.5 7.16667V16.3333C17.5 16.7754 17.3244 17.1993 17.0118 17.5118C16.6993 17.8244 16.2754 18 15.8333 18Z" stroke="url(#paint0_linear_151_1010)" stroke-width="1.5" stroke-linecap="round" stroke-linejoin="round"/>
<path d="M14.1667 18.0002V11.3335H5.83337V18.0002" stroke="url(#paint1_linear_151_1010)" stroke-width="1.5" stroke-linecap="round" stroke-linejoin="round"/>
<path d="M5.83337 3V7.16667H12.5" stroke="url(#paint2_linear_151_1010)" stroke-width="1.5" stroke-linecap="round" stroke-linejoin="round"/>
<defs>
<linearGradient id="paint0_linear_151_1010" x1="1.46354" y1="6.91113" x2="20.7003" y2="13.6607" gradientUnits="userSpaceOnUse">
<stop stop-color="#191e20"/>
<stop offset="1" stop-color="#191e20"/>
</linearGradient>
<linearGradient id="paint1_linear_151_1010" x1="5.25756" y1="13.0718" x2="15.324" y2="17.4867" gradientUnits="userSpaceOnUse">
<stop stop-color="#191e20"/>
<stop offset="1" stop-color="#191e20"/>
</linearGradient>
<linearGradient id="paint2_linear_151_1010" x1="5.37273" y1="4.08643" x2="12.6739" y2="8.18521" gradientUnits="userSpaceOnUse">
<stop stop-color="#191e20"/>
<stop offset="1" stop-color="#191e20"/>
</linearGradient>
</defs>
</svg>
