<svg width="24" height="24" viewBox="0 0 24 24" fill="none" xmlns="http://www.w3.org/2000/svg">
<g clip-path="url(#clip0_151_1628)">
<path d="M10.5691 0C4.74145 0 0 4.74145 0 10.5691C0 16.3971 4.74145 21.1382 10.5691 21.1382C16.3971 21.1382 21.1382 16.3971 21.1382 10.5691C21.1382 4.74145 16.3971 0 10.5691 0ZM10.5691 19.187C5.81723 19.187 1.95122 15.321 1.95122 10.5691C1.95122 5.81728 5.81723 1.95122 10.5691 1.95122C15.321 1.95122 19.187 5.81723 19.187 10.5691C19.187 15.321 15.321 19.187 10.5691 19.187Z" fill="#44c2ad"/>
<path d="M23.7141 22.3344L18.1206 16.7409C17.7395 16.3598 17.1223 16.3598 16.7411 16.7409C16.36 17.1217 16.36 17.7397 16.7411 18.1205L22.3346 23.714C22.5252 23.9045 22.7746 23.9998 23.0244 23.9998C23.2738 23.9998 23.5236 23.9045 23.7141 23.714C24.0953 23.3332 24.0953 22.7152 23.7141 22.3344Z" fill="#44c2ad"/>
<path fill-rule="evenodd" clip-rule="evenodd" d="M10.8787 15.5858C10.4835 15.8476 10.0095 16 9.5 16C8.11929 16 7 14.8807 7 13.5C7 12.9905 7.15244 12.5165 7.4142 12.1213L10.8787 15.5858ZM11.5858 14.8787L8.1213 11.4142C8.51652 11.1524 8.99046 11 9.5 11C10.8807 11 12 12.1193 12 13.5C12 14.0095 11.8476 14.4835 11.5858 14.8787ZM13 13.5C13 15.433 11.433 17 9.5 17C7.567 17 6 15.433 6 13.5C6 11.567 7.567 10 9.5 10C11.433 10 13 11.567 13 13.5Z" fill="#53a0cd"/>
<path fill-rule="evenodd" clip-rule="evenodd" d="M9.4142 8.87869C9.15244 8.48348 9 8.00954 9 7.5C9 6.11929 10.1193 5 11.5 5C12.0095 5 12.4835 5.15244 12.8787 5.4142L9.4142 8.87869ZM10.1213 9.5858L13.5858 6.1213C13.8476 6.51652 14 6.99046 14 7.5C14 8.88071 12.8807 10 11.5 10C10.9905 10 10.5165 9.84756 10.1213 9.5858ZM11.5 11C9.567 11 8 9.433 8 7.5C8 5.567 9.567 4 11.5 4C13.433 4 15 5.567 15 7.5C15 9.433 13.433 11 11.5 11Z" fill="#53a0cd"/>
</g>
<defs>
<clipPath id="clip0_151_1628">
<rect width="24" height="24" fill="white"/>
</clipPath>
</defs>
</svg>
