<svg width="19" height="19" viewBox="0 0 19 19" fill="none" xmlns="http://www.w3.org/2000/svg">
<path d="M2.97768 15.8664L16.5499 10.0487C16.6902 9.98888 16.8098 9.88919 16.8939 9.76196C16.978 9.63474 17.0229 9.4856 17.0229 9.3331C17.0229 9.18059 16.978 9.03145 16.8939 8.90423C16.8098 8.777 16.6902 8.67731 16.5499 8.61754L2.97768 2.79976C2.86016 2.7485 2.73173 2.72731 2.60397 2.73809C2.47621 2.74887 2.35314 2.79128 2.24587 2.86151C2.1386 2.93174 2.0505 3.02757 1.98952 3.14035C1.92854 3.25313 1.8966 3.37933 1.89657 3.50754L1.88879 7.09309C1.88879 7.48198 2.17657 7.81643 2.56546 7.86309L13.5555 9.3331L2.56546 10.7953C2.17657 10.8498 1.88879 11.1842 1.88879 11.5731L1.89657 15.1587C1.89657 15.7109 2.46435 16.092 2.97768 15.8664Z" fill="url(#paint0_linear_151_1145)"/>
<defs>
<linearGradient id="paint0_linear_151_1145" x1="0.843072" y1="6.17639" x2="19.6038" y2="13.725" gradientUnits="userSpaceOnUse">
<stop stop-color="#191e20"/>
<stop offset="1" stop-color="#191e20"/>
</linearGradient>
</defs>
</svg>
