<svg width="20" height="20" viewBox="0 0 20 20" fill="none" xmlns="http://www.w3.org/2000/svg">
<path d="M15 6.6665C16.3807 6.6665 17.5 5.54722 17.5 4.1665C17.5 2.78579 16.3807 1.6665 15 1.6665C13.6193 1.6665 12.5 2.78579 12.5 4.1665C12.5 5.54722 13.6193 6.6665 15 6.6665Z" stroke="url(#paint0_linear_151_1095)" stroke-width="1.5" stroke-linecap="round" stroke-linejoin="round"/>
<path d="M5 12.5C6.38071 12.5 7.5 11.3807 7.5 10C7.5 8.61929 6.38071 7.5 5 7.5C3.61929 7.5 2.5 8.61929 2.5 10C2.5 11.3807 3.61929 12.5 5 12.5Z" stroke="url(#paint1_linear_151_1095)" stroke-width="1.5" stroke-linecap="round" stroke-linejoin="round"/>
<path d="M15 18.3335C16.3807 18.3335 17.5 17.2142 17.5 15.8335C17.5 14.4528 16.3807 13.3335 15 13.3335C13.6193 13.3335 12.5 14.4528 12.5 15.8335C12.5 17.2142 13.6193 18.3335 15 18.3335Z" stroke="url(#paint2_linear_151_1095)" stroke-width="1.5" stroke-linecap="round" stroke-linejoin="round"/>
<path d="M7.15833 11.2583L12.85 14.575" stroke="url(#paint3_linear_151_1095)" stroke-width="1.5" stroke-linecap="round" stroke-linejoin="round"/>
<path d="M12.8417 5.4248L7.15833 8.74147" stroke="url(#paint4_linear_151_1095)" stroke-width="1.5" stroke-linecap="round" stroke-linejoin="round"/>
<defs>
<linearGradient id="paint0_linear_151_1095" x1="12.1545" y1="2.97021" x2="18.5668" y2="5.22005" gradientUnits="userSpaceOnUse">
<stop stop-color="#191e20"/>
<stop offset="1" stop-color="#191e20"/>
</linearGradient>
<linearGradient id="paint1_linear_151_1095" x1="2.15451" y1="8.80371" x2="8.56676" y2="11.0536" gradientUnits="userSpaceOnUse">
<stop stop-color="#191e20"/>
<stop offset="1" stop-color="#191e20"/>
</linearGradient>
<linearGradient id="paint2_linear_151_1095" x1="12.1545" y1="14.6372" x2="18.5668" y2="16.887" gradientUnits="userSpaceOnUse">
<stop stop-color="#191e20"/>
<stop offset="1" stop-color="#191e20"/>
</linearGradient>
<linearGradient id="paint3_linear_151_1095" x1="6.76505" y1="12.1231" x2="12.7817" y2="15.7458" gradientUnits="userSpaceOnUse">
<stop stop-color="#191e20"/>
<stop offset="1" stop-color="#191e20"/>
</linearGradient>
<linearGradient id="paint4_linear_151_1095" x1="6.76563" y1="6.2896" x2="12.7781" y2="9.90449" gradientUnits="userSpaceOnUse">
<stop stop-color="#191e20"/>
<stop offset="1" stop-color="#191e20"/>
</linearGradient>
</defs>
</svg>
